<svg width="36" height="36" viewBox="0 0 36 36" fill="none" xmlns="http://www.w3.org/2000/svg">
<path fill-rule="evenodd" clip-rule="evenodd" d="M0 18C0 8.064 8.064 0 18 0C27.936 0 36 8.064 36 18C36 27.936 27.936 36 18 36C8.064 36 0 27.936 0 18ZM2.16 18C2.16 26.784 9.216 33.84 18 33.84C26.784 33.84 33.84 26.784 33.84 18C33.84 9.216 26.784 2.16 18 2.16C9.216 2.16 2.16 9.216 2.16 18Z" fill="#F2F2F2"/>
<path fill-rule="evenodd" clip-rule="evenodd" d="M12.744 10.0801H23.256H23.328V13.6081H12.744V10.0801ZM24.192 14.4721H11.808C10.296 14.4721 9.14404 15.6241 9.14404 17.1361V22.3921H12.672V25.9201H23.256V22.3921H26.784V17.1361C26.784 15.6241 25.632 14.4721 24.192 14.4721ZM21.5281 24.1921H14.4721V19.8001H21.5281V24.1921Z" fill="#F2F2F2"/>
</svg>
