<svg width="36" height="36" viewBox="0 0 36 36" fill="none" xmlns="http://www.w3.org/2000/svg">
<path fill-rule="evenodd" clip-rule="evenodd" d="M11.0881 10.0801H24.9121C25.4881 10.0801 25.9201 10.6561 25.9201 11.3761V12.3841L18.0001 17.9281L10.0801 12.3841V11.3761C10.0801 10.6561 10.5121 10.0801 11.0881 10.0801ZM17.1425 20.3185C17.5425 20.5489 17.7425 20.6641 18.0001 20.6641C18.2881 20.6641 18.5041 20.5201 19.0081 20.1601L25.9201 15.3361V24.5521C25.9201 25.2721 25.4881 25.8481 24.9121 25.8481H11.0881C10.5121 25.8481 10.0801 25.2721 10.0801 24.5521V15.3361L16.9921 20.2321C17.0453 20.2625 17.0953 20.2913 17.1425 20.3185Z" fill="#F2F2F2"/>
<path fill-rule="evenodd" clip-rule="evenodd" d="M0 18C0 8.064 8.064 0 18 0C27.936 0 36 8.064 36 18C36 27.936 27.936 36 18 36C8.064 36 0 27.936 0 18ZM2.16 18C2.16 26.784 9.216 33.84 18 33.84C26.784 33.84 33.84 26.784 33.84 18C33.84 9.216 26.784 2.16 18 2.16C9.216 2.16 2.16 9.216 2.16 18Z" fill="#F2F2F2"/>
</svg>
