<svg width="36" height="36" viewBox="0 0 36 36" fill="none" xmlns="http://www.w3.org/2000/svg">
<path fill-rule="evenodd" clip-rule="evenodd" d="M12.0241 9.36011C10.8721 9.36011 10.0801 10.1521 10.0801 11.1601C10.0801 12.1681 10.8001 12.9601 11.9521 12.9601C13.1041 12.9601 13.8961 12.1681 13.8961 11.1601C13.8961 10.1521 13.1761 9.36011 12.0241 9.36011ZM10.0801 14.4721V24.9121H13.4641V14.4721H10.0801ZM19.008 16.2001C19.44 15.4801 20.232 14.4721 22.032 14.4721C24.264 14.4721 25.92 15.9841 25.92 19.2241V25.2001H22.608V19.5121C22.608 18.0721 22.104 17.1361 20.88 17.1361C19.944 17.1361 19.368 17.7841 19.152 18.4321C19.008 18.6481 19.008 19.0081 19.008 19.2961V25.1281H15.624C15.624 25.1281 15.696 15.6961 15.624 14.6881H19.008V16.2001Z" fill="#F2F2F2"/>
<path fill-rule="evenodd" clip-rule="evenodd" d="M0 18C0 8.064 8.064 0 18 0C27.936 0 36 8.064 36 18C36 27.936 27.936 36 18 36C8.064 36 0 27.936 0 18ZM2.16 18C2.16 26.784 9.216 33.84 18 33.84C26.784 33.84 33.84 26.784 33.84 18C33.84 9.216 26.784 2.16 18 2.16C9.216 2.16 2.16 9.216 2.16 18Z" fill="#F2F2F2"/>
</svg>
