<svg width="96" height="96" viewBox="0 0 96 96" fill="none" xmlns="http://www.w3.org/2000/svg">
<path fill-rule="evenodd" clip-rule="evenodd" d="M48 -0.000213623C21.5467 -0.000213623 0 21.4398 0 47.9998C0 74.4531 21.5467 95.9998 48 95.9998C74.4533 95.9998 96 74.4531 96 47.9998C96 21.4398 74.4533 -0.000213623 48 -0.000213623Z" fill="#F7F7F7" fill-opacity="0.6"/>
<path fill-rule="evenodd" clip-rule="evenodd" d="M67.4135 49.8133L37.3335 68.3733C35.9469 69.2267 34.1335 68.2667 34.1335 66.56V29.44C34.1335 27.7333 35.9469 26.7733 37.3335 27.6267L67.4135 46.1867C68.6935 47.04 68.6935 48.96 67.4135 49.8133Z" fill="#D41217"/>
<path d="M67.4135 49.8133L37.3335 68.3733C35.9469 69.2267 34.1335 68.2667 34.1335 66.56V29.44C34.1335 27.7333 35.9469 26.7733 37.3335 27.6267L67.4135 46.1867C68.6935 47.04 68.6935 48.96 67.4135 49.8133" stroke="#D41217" stroke-width="2"/>
</svg>
