<svg width="36" height="36" viewBox="0 0 36 36" fill="none" xmlns="http://www.w3.org/2000/svg">
<path d="M17.7119 14.3279L17.7839 15.0479L17.1359 14.9759C14.7599 14.6879 12.5999 13.5359 10.7999 11.7359L9.93591 10.7999L9.71991 11.4479C9.21591 12.9599 9.57591 14.5439 10.5119 15.5519C11.0159 16.1279 10.9439 16.1999 10.0079 15.8399C9.71991 15.6959 9.43191 15.6239 9.35991 15.6959C9.28791 15.7679 9.57591 17.0639 9.86391 17.5679C10.2239 18.2879 10.9439 18.9359 11.6639 19.3679L12.3119 19.6559H11.5199C10.7999 19.6559 10.7279 19.6559 10.7999 19.9439C11.0879 20.8799 12.0959 21.8159 13.2479 22.2479L14.0399 22.5359L13.3199 22.9679C12.2399 23.6159 11.0159 23.9759 9.79191 23.9759C9.21591 23.9759 8.71191 24.0479 8.71191 24.1199C8.71191 24.2639 10.2959 25.0559 11.3039 25.3439C14.1119 26.2799 17.4959 25.8479 20.0159 24.3359C21.8159 23.2559 23.6159 21.0239 24.4079 18.9359C24.8399 17.7839 25.3439 15.7679 25.3439 14.7599C25.3439 14.1119 25.4159 14.0399 26.1359 13.2479C26.5679 12.8159 26.9999 12.3119 27.0719 12.1679C27.2159 11.8799 27.2159 11.8799 26.4959 12.1679C25.3439 12.5999 25.1999 12.5279 25.7759 11.8799C26.2079 11.4479 26.7119 10.6559 26.7119 10.3679C26.7119 10.2959 26.4959 10.3679 26.2799 10.5119C26.0639 10.6559 25.4879 10.8719 25.1279 11.0159L24.4079 11.2319L23.7599 10.7999C23.3999 10.5839 22.8959 10.2959 22.6079 10.1519C21.9599 9.9359 20.8799 10.0079 20.3039 10.2239C18.6479 10.8719 17.6399 12.5279 17.7119 14.3279C17.7119 14.3279 17.6399 12.5279 17.7119 14.3279Z" fill="#F2F2F2"/>
<path fill-rule="evenodd" clip-rule="evenodd" d="M0 18C0 8.064 8.064 0 18 0C27.936 0 36 8.064 36 18C36 27.936 27.936 36 18 36C8.064 36 0 27.936 0 18ZM2.16 18C2.16 26.784 9.216 33.84 18 33.84C26.784 33.84 33.84 26.784 33.84 18C33.84 9.216 26.784 2.16 18 2.16C9.216 2.16 2.16 9.216 2.16 18Z" fill="#F2F2F2"/>
</svg>
