<svg width="36" height="36" viewBox="0 0 36 36" fill="none" xmlns="http://www.w3.org/2000/svg">
<path fill-rule="evenodd" clip-rule="evenodd" d="M0 18C0 8.064 8.064 0 18 0C27.936 0 36 8.064 36 18C36 27.936 27.936 36 18 36C8.064 36 0 27.936 0 18ZM2.16 18C2.16 26.784 9.216 33.84 18 33.84C26.784 33.84 33.84 26.784 33.84 18C33.84 9.216 26.784 2.16 18 2.16C9.216 2.16 2.16 9.216 2.16 18Z" fill="#F2F2F2"/>
<path d="M15.9119 25.9201H19.1519V18.0001H21.3119L21.5999 15.2641H19.1519V13.8961C19.1519 13.1761 19.2239 12.8161 20.2319 12.8161H21.5999V10.0801H19.4399C16.8479 10.0801 15.9119 11.3761 15.9119 13.6081V15.2641H14.2559V18.0001H15.9119V25.9201Z" fill="#F2F2F2"/>
</svg>
