<svg width="20" height="20" viewBox="0 0 20 20" fill="none" xmlns="http://www.w3.org/2000/svg">
<path fill-rule="evenodd" clip-rule="evenodd" d="M7.93333 15.8667C9.66667 15.8667 11.2667 15.3333 12.5333 14.4L17.7333 19.6C18.2667 20.1333 19.0667 20.1333 19.6 19.6C20.1333 19.0667 20.1333 18.2667 19.6 17.7333L14.4 12.5333C15.3333 11.2667 15.8667 9.66667 15.8667 7.93333C15.8667 3.53333 12.3333 0 7.93333 0C3.53333 0 0 3.53333 0 7.93333C0 12.3333 3.53333 15.8667 7.93333 15.8667ZM14 7.93333C14 11.2667 11.2667 14 7.93333 14C4.6 14 1.86667 11.2667 1.86667 7.93333C1.86667 4.6 4.6 1.86667 7.93333 1.86667C11.2667 1.86667 14 4.6 14 7.93333Z" fill="#D41217"/>
</svg>
